<mxfile host="Electron" agent="Mozilla/5.0 (Macintosh; Intel Mac OS X 10_15_7) AppleWebKit/537.36 (KHTML, like Gecko) draw.io/26.1.1 Chrome/132.0.6834.210 Electron/34.3.3 Safari/537.36" version="26.1.1">
  <diagram name="Page-1" id="LaAgvc_H49lso2V-GCZU">
    <mxGraphModel dx="1434" dy="107" grid="1" gridSize="10" guides="1" tooltips="1" connect="1" arrows="1" fold="1" page="0" pageScale="1" pageWidth="1654" pageHeight="2336" math="0" shadow="0">
      <root>
        <mxCell id="0" />
        <mxCell id="1" parent="0" />
        <mxCell id="Hp68hWNEJMO9zHYdXdST-1" value="Sys" style="shape=umlFrame;whiteSpace=wrap;html=1;pointerEvents=0;recursiveResize=0;container=1;collapsible=0;width=160;" vertex="1" parent="1">
          <mxGeometry x="280" y="910" width="980" height="550" as="geometry" />
        </mxCell>
        <mxCell id="Hp68hWNEJMO9zHYdXdST-4" value="s&#39;inscrire en tent que recruteur" style="ellipse;whiteSpace=wrap;html=1;" vertex="1" parent="Hp68hWNEJMO9zHYdXdST-1">
          <mxGeometry x="90" y="30" width="140" height="70" as="geometry" />
        </mxCell>
        <mxCell id="Hp68hWNEJMO9zHYdXdST-5" value="&amp;nbsp;Consulter offres" style="ellipse;whiteSpace=wrap;html=1;" vertex="1" parent="Hp68hWNEJMO9zHYdXdST-1">
          <mxGeometry x="300" y="200" width="140" height="70" as="geometry" />
        </mxCell>
        <mxCell id="Hp68hWNEJMO9zHYdXdST-6" value="Candidater" style="ellipse;whiteSpace=wrap;html=1;" vertex="1" parent="Hp68hWNEJMO9zHYdXdST-1">
          <mxGeometry x="360" y="360" width="140" height="70" as="geometry" />
        </mxCell>
        <mxCell id="Hp68hWNEJMO9zHYdXdST-7" value="Consulter historique candidatures" style="ellipse;whiteSpace=wrap;html=1;" vertex="1" parent="Hp68hWNEJMO9zHYdXdST-1">
          <mxGeometry x="550" y="450" width="140" height="70" as="geometry" />
        </mxCell>
        <mxCell id="Hp68hWNEJMO9zHYdXdST-8" value="créer entreprise" style="ellipse;whiteSpace=wrap;html=1;" vertex="1" parent="Hp68hWNEJMO9zHYdXdST-1">
          <mxGeometry x="90" y="200" width="140" height="70" as="geometry" />
        </mxCell>
        <mxCell id="Hp68hWNEJMO9zHYdXdST-9" value="Publier&amp;nbsp;" style="ellipse;whiteSpace=wrap;html=1;" vertex="1" parent="Hp68hWNEJMO9zHYdXdST-1">
          <mxGeometry x="340" y="120" width="140" height="70" as="geometry" />
        </mxCell>
        <mxCell id="Hp68hWNEJMO9zHYdXdST-10" value="Voir profil candidats" style="ellipse;whiteSpace=wrap;html=1;" vertex="1" parent="Hp68hWNEJMO9zHYdXdST-1">
          <mxGeometry y="430" width="140" height="70" as="geometry" />
        </mxCell>
        <mxCell id="Hp68hWNEJMO9zHYdXdST-18" value="s&#39;inscrire en tent que&amp;nbsp;&lt;div&gt;candidat&lt;/div&gt;" style="ellipse;whiteSpace=wrap;html=1;" vertex="1" parent="Hp68hWNEJMO9zHYdXdST-1">
          <mxGeometry x="250" y="20" width="140" height="70" as="geometry" />
        </mxCell>
        <mxCell id="Hp68hWNEJMO9zHYdXdST-27" value="" style="endArrow=none;html=1;edgeStyle=orthogonalEdgeStyle;rounded=0;" edge="1" parent="Hp68hWNEJMO9zHYdXdST-1" target="Hp68hWNEJMO9zHYdXdST-10">
          <mxGeometry relative="1" as="geometry">
            <mxPoint x="-110" y="250" as="sourcePoint" />
            <mxPoint x="50" y="250" as="targetPoint" />
          </mxGeometry>
        </mxCell>
        <mxCell id="Hp68hWNEJMO9zHYdXdST-39" value="Includes" style="endArrow=open;endSize=12;dashed=1;html=1;rounded=0;entryX=0.614;entryY=0.043;entryDx=0;entryDy=0;entryPerimeter=0;exitX=0.05;exitY=0.3;exitDx=0;exitDy=0;exitPerimeter=0;" edge="1" parent="Hp68hWNEJMO9zHYdXdST-1" source="Hp68hWNEJMO9zHYdXdST-7" target="Hp68hWNEJMO9zHYdXdST-6">
          <mxGeometry width="160" relative="1" as="geometry">
            <mxPoint x="350" y="260" as="sourcePoint" />
            <mxPoint x="510" y="260" as="targetPoint" />
          </mxGeometry>
        </mxCell>
        <mxCell id="Hp68hWNEJMO9zHYdXdST-43" value="Includes" style="endArrow=open;endSize=12;dashed=1;html=1;rounded=0;entryX=0.5;entryY=0;entryDx=0;entryDy=0;exitX=0.279;exitY=0.086;exitDx=0;exitDy=0;exitPerimeter=0;" edge="1" parent="Hp68hWNEJMO9zHYdXdST-1" source="Hp68hWNEJMO9zHYdXdST-9" target="Hp68hWNEJMO9zHYdXdST-8">
          <mxGeometry width="160" relative="1" as="geometry">
            <mxPoint x="391" y="198" as="sourcePoint" />
            <mxPoint x="280" y="90" as="targetPoint" />
          </mxGeometry>
        </mxCell>
        <mxCell id="Hp68hWNEJMO9zHYdXdST-44" value="Includes" style="endArrow=open;endSize=12;dashed=1;html=1;rounded=0;entryX=0.614;entryY=0.043;entryDx=0;entryDy=0;entryPerimeter=0;exitX=0.379;exitY=-0.014;exitDx=0;exitDy=0;exitPerimeter=0;" edge="1" parent="Hp68hWNEJMO9zHYdXdST-1" source="Hp68hWNEJMO9zHYdXdST-6">
          <mxGeometry width="160" relative="1" as="geometry">
            <mxPoint x="531" y="368" as="sourcePoint" />
            <mxPoint x="420" y="260" as="targetPoint" />
          </mxGeometry>
        </mxCell>
        <mxCell id="Hp68hWNEJMO9zHYdXdST-2" value="recruteur authentifié" style="shape=umlActor;verticalLabelPosition=bottom;verticalAlign=top;html=1;" vertex="1" parent="1">
          <mxGeometry x="140" y="1100" width="30" height="60" as="geometry" />
        </mxCell>
        <mxCell id="Hp68hWNEJMO9zHYdXdST-3" value="Candidat authentifié" style="shape=umlActor;verticalLabelPosition=bottom;verticalAlign=top;html=1;" vertex="1" parent="1">
          <mxGeometry x="90" y="1210" width="30" height="60" as="geometry" />
        </mxCell>
        <mxCell id="Hp68hWNEJMO9zHYdXdST-16" value="visiteur" style="shape=umlActor;verticalLabelPosition=bottom;verticalAlign=top;html=1;" vertex="1" parent="1">
          <mxGeometry x="120" y="970" width="30" height="60" as="geometry" />
        </mxCell>
        <mxCell id="Hp68hWNEJMO9zHYdXdST-19" value="" style="endArrow=none;html=1;edgeStyle=orthogonalEdgeStyle;rounded=0;entryX=0;entryY=0.5;entryDx=0;entryDy=0;" edge="1" parent="1" target="Hp68hWNEJMO9zHYdXdST-4">
          <mxGeometry relative="1" as="geometry">
            <mxPoint x="140" y="999.5" as="sourcePoint" />
            <mxPoint x="300" y="1000" as="targetPoint" />
            <Array as="points">
              <mxPoint x="350" y="1000" />
            </Array>
          </mxGeometry>
        </mxCell>
        <mxCell id="Hp68hWNEJMO9zHYdXdST-22" value="" style="endArrow=none;html=1;edgeStyle=orthogonalEdgeStyle;rounded=0;entryX=0.043;entryY=0.229;entryDx=0;entryDy=0;entryPerimeter=0;" edge="1" parent="1" target="Hp68hWNEJMO9zHYdXdST-18">
          <mxGeometry relative="1" as="geometry">
            <mxPoint x="140" y="1020" as="sourcePoint" />
            <mxPoint x="300" y="1020" as="targetPoint" />
          </mxGeometry>
        </mxCell>
        <mxCell id="Hp68hWNEJMO9zHYdXdST-31" value="" style="endArrow=open;endFill=1;endSize=12;html=1;rounded=0;entryX=0.4;entryY=0.283;entryDx=0;entryDy=0;entryPerimeter=0;exitX=1;exitY=1.167;exitDx=0;exitDy=0;exitPerimeter=0;" edge="1" parent="1" source="Hp68hWNEJMO9zHYdXdST-16" target="Hp68hWNEJMO9zHYdXdST-2">
          <mxGeometry width="160" relative="1" as="geometry">
            <mxPoint x="30" y="1080" as="sourcePoint" />
            <mxPoint x="190" y="1080" as="targetPoint" />
          </mxGeometry>
        </mxCell>
        <mxCell id="Hp68hWNEJMO9zHYdXdST-33" value="" style="endArrow=open;endFill=1;endSize=12;html=1;rounded=0;entryX=0.75;entryY=0.1;entryDx=0;entryDy=0;entryPerimeter=0;" edge="1" parent="1" target="Hp68hWNEJMO9zHYdXdST-3">
          <mxGeometry width="160" relative="1" as="geometry">
            <mxPoint x="115" y="1040" as="sourcePoint" />
            <mxPoint x="120" y="1160" as="targetPoint" />
          </mxGeometry>
        </mxCell>
        <mxCell id="Hp68hWNEJMO9zHYdXdST-25" value="" style="endArrow=none;html=1;edgeStyle=orthogonalEdgeStyle;rounded=0;exitX=1;exitY=0.3333333333333333;exitDx=0;exitDy=0;exitPerimeter=0;entryX=0;entryY=1;entryDx=0;entryDy=0;" edge="1" parent="1" source="Hp68hWNEJMO9zHYdXdST-2" target="Hp68hWNEJMO9zHYdXdST-9">
          <mxGeometry relative="1" as="geometry">
            <mxPoint x="290" y="1190" as="sourcePoint" />
            <mxPoint x="450" y="1190" as="targetPoint" />
          </mxGeometry>
        </mxCell>
        <mxCell id="Hp68hWNEJMO9zHYdXdST-26" value="" style="endArrow=none;html=1;edgeStyle=orthogonalEdgeStyle;rounded=0;entryX=0;entryY=0.5;entryDx=0;entryDy=0;" edge="1" parent="1" target="Hp68hWNEJMO9zHYdXdST-8">
          <mxGeometry relative="1" as="geometry">
            <mxPoint x="150" y="1140" as="sourcePoint" />
            <mxPoint x="310" y="1150" as="targetPoint" />
            <Array as="points">
              <mxPoint x="150" y="1136" />
              <mxPoint x="310" y="1136" />
              <mxPoint x="310" y="1215" />
            </Array>
          </mxGeometry>
        </mxCell>
        <mxCell id="Hp68hWNEJMO9zHYdXdST-28" value="" style="endArrow=none;html=1;edgeStyle=orthogonalEdgeStyle;rounded=0;entryX=0.093;entryY=0.829;entryDx=0;entryDy=0;entryPerimeter=0;" edge="1" parent="1" target="Hp68hWNEJMO9zHYdXdST-5">
          <mxGeometry relative="1" as="geometry">
            <mxPoint x="110" y="1260" as="sourcePoint" />
            <mxPoint x="270" y="1260" as="targetPoint" />
          </mxGeometry>
        </mxCell>
        <mxCell id="Hp68hWNEJMO9zHYdXdST-29" value="" style="endArrow=none;html=1;edgeStyle=orthogonalEdgeStyle;rounded=0;entryX=0.036;entryY=0.4;entryDx=0;entryDy=0;entryPerimeter=0;" edge="1" parent="1" target="Hp68hWNEJMO9zHYdXdST-6">
          <mxGeometry relative="1" as="geometry">
            <mxPoint x="110" y="1270" as="sourcePoint" />
            <mxPoint x="270" y="1270" as="targetPoint" />
            <Array as="points">
              <mxPoint x="645" y="1270" />
            </Array>
          </mxGeometry>
        </mxCell>
        <mxCell id="Hp68hWNEJMO9zHYdXdST-40" value="" style="endArrow=none;html=1;edgeStyle=orthogonalEdgeStyle;rounded=0;exitX=0;exitY=1;exitDx=0;exitDy=0;exitPerimeter=0;entryX=0;entryY=0.5;entryDx=0;entryDy=0;" edge="1" parent="1" source="Hp68hWNEJMO9zHYdXdST-3" target="Hp68hWNEJMO9zHYdXdST-7">
          <mxGeometry relative="1" as="geometry">
            <mxPoint x="440" y="1320" as="sourcePoint" />
            <mxPoint x="600" y="1320" as="targetPoint" />
          </mxGeometry>
        </mxCell>
      </root>
    </mxGraphModel>
  </diagram>
</mxfile>
